%TF.GenerationSoftware,KiCad,Pcbnew,(5.1.10)-1*%
%TF.CreationDate,2023-02-13T10:48:01+08:00*%
%TF.ProjectId,my_foc_power_shield,6d795f66-6f63-45f7-906f-7765725f7368,rev?*%
%TF.SameCoordinates,Original*%
%TF.FileFunction,Soldermask,Bot*%
%TF.FilePolarity,Negative*%
%FSLAX46Y46*%
G04 Gerber Fmt 4.6, Leading zero omitted, Abs format (unit mm)*
G04 Created by KiCad (PCBNEW (5.1.10)-1) date 2023-02-13 10:48:01*
%MOMM*%
%LPD*%
G01*
G04 APERTURE LIST*
%ADD10R,1.700000X1.700000*%
%ADD11O,1.700000X1.700000*%
%ADD12C,4.064000*%
G04 APERTURE END LIST*
D10*
%TO.C,U8*%
X113598000Y-111765000D03*
D11*
X113598000Y-109225000D03*
X113598000Y-106685000D03*
%TD*%
%TO.C,P3*%
X152654000Y-75565000D03*
X150114000Y-75565000D03*
X147574000Y-75565000D03*
X145034000Y-75565000D03*
X142494000Y-75565000D03*
X139954000Y-75565000D03*
X137414000Y-75565000D03*
X134874000Y-75565000D03*
X132334000Y-75565000D03*
D10*
X129794000Y-75565000D03*
%TD*%
D11*
%TO.C,P1*%
X156718000Y-123825000D03*
X154178000Y-123825000D03*
X151638000Y-123825000D03*
X149098000Y-123825000D03*
X146558000Y-123825000D03*
X144018000Y-123825000D03*
X141478000Y-123825000D03*
D10*
X138938000Y-123825000D03*
%TD*%
D11*
%TO.C,P4*%
X174498000Y-75565000D03*
X171958000Y-75565000D03*
X169418000Y-75565000D03*
X166878000Y-75565000D03*
X164338000Y-75565000D03*
X161798000Y-75565000D03*
X159258000Y-75565000D03*
D10*
X156718000Y-75565000D03*
%TD*%
D11*
%TO.C,P2*%
X174498000Y-123825000D03*
X171958000Y-123825000D03*
X169418000Y-123825000D03*
X166878000Y-123825000D03*
X164338000Y-123825000D03*
D10*
X161798000Y-123825000D03*
%TD*%
D12*
%TO.C,P6*%
X177038000Y-118745000D03*
%TD*%
%TO.C,P7*%
X126238000Y-75565000D03*
%TD*%
%TO.C,P8*%
X177038000Y-90805000D03*
%TD*%
D10*
%TO.C,BT1*%
X131598000Y-123765000D03*
D11*
X129058000Y-123765000D03*
%TD*%
D10*
%TO.C,J3*%
X174298000Y-83365000D03*
D11*
X171758000Y-83365000D03*
X169218000Y-83365000D03*
X166678000Y-83365000D03*
X164138000Y-83365000D03*
%TD*%
M02*
