%TF.GenerationSoftware,KiCad,Pcbnew,(5.1.10)-1*%
%TF.CreationDate,2023-02-13T10:48:01+08:00*%
%TF.ProjectId,my_foc_power_shield,6d795f66-6f63-45f7-906f-7765725f7368,rev?*%
%TF.SameCoordinates,Original*%
%TF.FileFunction,Legend,Top*%
%TF.FilePolarity,Positive*%
%FSLAX46Y46*%
G04 Gerber Fmt 4.6, Leading zero omitted, Abs format (unit mm)*
G04 Created by KiCad (PCBNEW (5.1.10)-1) date 2023-02-13 10:48:01*
%MOMM*%
%LPD*%
G01*
G04 APERTURE LIST*
%ADD10C,0.300000*%
%ADD11C,0.150000*%
%ADD12C,0.120000*%
%ADD13C,0.200000*%
%ADD14C,0.127000*%
G04 APERTURE END LIST*
D10*
X113026571Y-102293571D02*
X113455142Y-103436428D01*
X113883714Y-102293571D01*
X113455142Y-101579285D02*
X113455142Y-100436428D01*
X114026571Y-98579285D02*
X112526571Y-98579285D01*
X113598000Y-98079285D01*
X112526571Y-97579285D01*
X114026571Y-97579285D01*
X114026571Y-96650714D02*
X113955142Y-96793571D01*
X113883714Y-96865000D01*
X113740857Y-96936428D01*
X113312285Y-96936428D01*
X113169428Y-96865000D01*
X113098000Y-96793571D01*
X113026571Y-96650714D01*
X113026571Y-96436428D01*
X113098000Y-96293571D01*
X113169428Y-96222142D01*
X113312285Y-96150714D01*
X113740857Y-96150714D01*
X113883714Y-96222142D01*
X113955142Y-96293571D01*
X114026571Y-96436428D01*
X114026571Y-96650714D01*
X113026571Y-95722142D02*
X113026571Y-95150714D01*
X112526571Y-95507857D02*
X113812285Y-95507857D01*
X113955142Y-95436428D01*
X114026571Y-95293571D01*
X114026571Y-95150714D01*
X114026571Y-94436428D02*
X113955142Y-94579285D01*
X113883714Y-94650714D01*
X113740857Y-94722142D01*
X113312285Y-94722142D01*
X113169428Y-94650714D01*
X113098000Y-94579285D01*
X113026571Y-94436428D01*
X113026571Y-94222142D01*
X113098000Y-94079285D01*
X113169428Y-94007857D01*
X113312285Y-93936428D01*
X113740857Y-93936428D01*
X113883714Y-94007857D01*
X113955142Y-94079285D01*
X114026571Y-94222142D01*
X114026571Y-94436428D01*
X114026571Y-93293571D02*
X113026571Y-93293571D01*
X113312285Y-93293571D02*
X113169428Y-93222142D01*
X113098000Y-93150714D01*
X113026571Y-93007857D01*
X113026571Y-92865000D01*
X114026571Y-91222142D02*
X112526571Y-91222142D01*
X113026571Y-90507857D02*
X114026571Y-90507857D01*
X113169428Y-90507857D02*
X113098000Y-90436428D01*
X113026571Y-90293571D01*
X113026571Y-90079285D01*
X113098000Y-89936428D01*
X113240857Y-89865000D01*
X114026571Y-89865000D01*
X113026571Y-89150714D02*
X114526571Y-89150714D01*
X113098000Y-89150714D02*
X113026571Y-89007857D01*
X113026571Y-88722142D01*
X113098000Y-88579285D01*
X113169428Y-88507857D01*
X113312285Y-88436428D01*
X113740857Y-88436428D01*
X113883714Y-88507857D01*
X113955142Y-88579285D01*
X114026571Y-88722142D01*
X114026571Y-89007857D01*
X113955142Y-89150714D01*
X113026571Y-87150714D02*
X114026571Y-87150714D01*
X113026571Y-87793571D02*
X113812285Y-87793571D01*
X113955142Y-87722142D01*
X114026571Y-87579285D01*
X114026571Y-87365000D01*
X113955142Y-87222142D01*
X113883714Y-87150714D01*
X113026571Y-86650714D02*
X113026571Y-86079285D01*
X112526571Y-86436428D02*
X113812285Y-86436428D01*
X113955142Y-86365000D01*
X114026571Y-86222142D01*
X114026571Y-86079285D01*
D11*
X169401571Y-114522142D02*
X169401571Y-114855476D01*
X169925380Y-114855476D02*
X168925380Y-114855476D01*
X168925380Y-114379285D01*
X168925380Y-113807857D02*
X168925380Y-113617380D01*
X168973000Y-113522142D01*
X169068238Y-113426904D01*
X169258714Y-113379285D01*
X169592047Y-113379285D01*
X169782523Y-113426904D01*
X169877761Y-113522142D01*
X169925380Y-113617380D01*
X169925380Y-113807857D01*
X169877761Y-113903095D01*
X169782523Y-113998333D01*
X169592047Y-114045952D01*
X169258714Y-114045952D01*
X169068238Y-113998333D01*
X168973000Y-113903095D01*
X168925380Y-113807857D01*
X169830142Y-112379285D02*
X169877761Y-112426904D01*
X169925380Y-112569761D01*
X169925380Y-112665000D01*
X169877761Y-112807857D01*
X169782523Y-112903095D01*
X169687285Y-112950714D01*
X169496809Y-112998333D01*
X169353952Y-112998333D01*
X169163476Y-112950714D01*
X169068238Y-112903095D01*
X168973000Y-112807857D01*
X168925380Y-112665000D01*
X168925380Y-112569761D01*
X168973000Y-112426904D01*
X169020619Y-112379285D01*
X169401571Y-110855476D02*
X169449190Y-110712619D01*
X169496809Y-110665000D01*
X169592047Y-110617380D01*
X169734904Y-110617380D01*
X169830142Y-110665000D01*
X169877761Y-110712619D01*
X169925380Y-110807857D01*
X169925380Y-111188809D01*
X168925380Y-111188809D01*
X168925380Y-110855476D01*
X168973000Y-110760238D01*
X169020619Y-110712619D01*
X169115857Y-110665000D01*
X169211095Y-110665000D01*
X169306333Y-110712619D01*
X169353952Y-110760238D01*
X169401571Y-110855476D01*
X169401571Y-111188809D01*
X169925380Y-109712619D02*
X169925380Y-110188809D01*
X168925380Y-110188809D01*
X169925380Y-109379285D02*
X168925380Y-109379285D01*
X168925380Y-109141190D01*
X168973000Y-108998333D01*
X169068238Y-108903095D01*
X169163476Y-108855476D01*
X169353952Y-108807857D01*
X169496809Y-108807857D01*
X169687285Y-108855476D01*
X169782523Y-108903095D01*
X169877761Y-108998333D01*
X169925380Y-109141190D01*
X169925380Y-109379285D01*
X169830142Y-107807857D02*
X169877761Y-107855476D01*
X169925380Y-107998333D01*
X169925380Y-108093571D01*
X169877761Y-108236428D01*
X169782523Y-108331666D01*
X169687285Y-108379285D01*
X169496809Y-108426904D01*
X169353952Y-108426904D01*
X169163476Y-108379285D01*
X169068238Y-108331666D01*
X168973000Y-108236428D01*
X168925380Y-108093571D01*
X168925380Y-107998333D01*
X168973000Y-107855476D01*
X169020619Y-107807857D01*
X169877761Y-106665000D02*
X169925380Y-106522142D01*
X169925380Y-106284047D01*
X169877761Y-106188809D01*
X169830142Y-106141190D01*
X169734904Y-106093571D01*
X169639666Y-106093571D01*
X169544428Y-106141190D01*
X169496809Y-106188809D01*
X169449190Y-106284047D01*
X169401571Y-106474523D01*
X169353952Y-106569761D01*
X169306333Y-106617380D01*
X169211095Y-106665000D01*
X169115857Y-106665000D01*
X169020619Y-106617380D01*
X168973000Y-106569761D01*
X168925380Y-106474523D01*
X168925380Y-106236428D01*
X168973000Y-106093571D01*
X169925380Y-105665000D02*
X169258714Y-105665000D01*
X168925380Y-105665000D02*
X168973000Y-105712619D01*
X169020619Y-105665000D01*
X168973000Y-105617380D01*
X168925380Y-105665000D01*
X169020619Y-105665000D01*
X169258714Y-105188809D02*
X169925380Y-105188809D01*
X169353952Y-105188809D02*
X169306333Y-105141190D01*
X169258714Y-105045952D01*
X169258714Y-104903095D01*
X169306333Y-104807857D01*
X169401571Y-104760238D01*
X169925380Y-104760238D01*
X169258714Y-103855476D02*
X170068238Y-103855476D01*
X170163476Y-103903095D01*
X170211095Y-103950714D01*
X170258714Y-104045952D01*
X170258714Y-104188809D01*
X170211095Y-104284047D01*
X169877761Y-103855476D02*
X169925380Y-103950714D01*
X169925380Y-104141190D01*
X169877761Y-104236428D01*
X169830142Y-104284047D01*
X169734904Y-104331666D01*
X169449190Y-104331666D01*
X169353952Y-104284047D01*
X169306333Y-104236428D01*
X169258714Y-104141190D01*
X169258714Y-103950714D01*
X169306333Y-103855476D01*
X169925380Y-103236428D02*
X169877761Y-103331666D01*
X169782523Y-103379285D01*
X168925380Y-103379285D01*
X169877761Y-102474523D02*
X169925380Y-102569761D01*
X169925380Y-102760238D01*
X169877761Y-102855476D01*
X169782523Y-102903095D01*
X169401571Y-102903095D01*
X169306333Y-102855476D01*
X169258714Y-102760238D01*
X169258714Y-102569761D01*
X169306333Y-102474523D01*
X169401571Y-102426904D01*
X169496809Y-102426904D01*
X169592047Y-102903095D01*
X169925380Y-101236428D02*
X168925380Y-101236428D01*
X169639666Y-100903095D01*
X168925380Y-100569761D01*
X169925380Y-100569761D01*
X169925380Y-99950714D02*
X169877761Y-100045952D01*
X169830142Y-100093571D01*
X169734904Y-100141190D01*
X169449190Y-100141190D01*
X169353952Y-100093571D01*
X169306333Y-100045952D01*
X169258714Y-99950714D01*
X169258714Y-99807857D01*
X169306333Y-99712619D01*
X169353952Y-99665000D01*
X169449190Y-99617380D01*
X169734904Y-99617380D01*
X169830142Y-99665000D01*
X169877761Y-99712619D01*
X169925380Y-99807857D01*
X169925380Y-99950714D01*
X169258714Y-99331666D02*
X169258714Y-98950714D01*
X168925380Y-99188809D02*
X169782523Y-99188809D01*
X169877761Y-99141190D01*
X169925380Y-99045952D01*
X169925380Y-98950714D01*
X169925380Y-98474523D02*
X169877761Y-98569761D01*
X169830142Y-98617380D01*
X169734904Y-98665000D01*
X169449190Y-98665000D01*
X169353952Y-98617380D01*
X169306333Y-98569761D01*
X169258714Y-98474523D01*
X169258714Y-98331666D01*
X169306333Y-98236428D01*
X169353952Y-98188809D01*
X169449190Y-98141190D01*
X169734904Y-98141190D01*
X169830142Y-98188809D01*
X169877761Y-98236428D01*
X169925380Y-98331666D01*
X169925380Y-98474523D01*
X169925380Y-97712619D02*
X169258714Y-97712619D01*
X169449190Y-97712619D02*
X169353952Y-97665000D01*
X169306333Y-97617380D01*
X169258714Y-97522142D01*
X169258714Y-97426904D01*
X169925380Y-96331666D02*
X168925380Y-96331666D01*
X168925380Y-96093571D01*
X168973000Y-95950714D01*
X169068238Y-95855476D01*
X169163476Y-95807857D01*
X169353952Y-95760238D01*
X169496809Y-95760238D01*
X169687285Y-95807857D01*
X169782523Y-95855476D01*
X169877761Y-95950714D01*
X169925380Y-96093571D01*
X169925380Y-96331666D01*
X169925380Y-95331666D02*
X169258714Y-95331666D01*
X169449190Y-95331666D02*
X169353952Y-95284047D01*
X169306333Y-95236428D01*
X169258714Y-95141190D01*
X169258714Y-95045952D01*
X169925380Y-94712619D02*
X169258714Y-94712619D01*
X168925380Y-94712619D02*
X168973000Y-94760238D01*
X169020619Y-94712619D01*
X168973000Y-94665000D01*
X168925380Y-94712619D01*
X169020619Y-94712619D01*
X169258714Y-94331666D02*
X169925380Y-94093571D01*
X169258714Y-93855476D01*
X169877761Y-93093571D02*
X169925380Y-93188809D01*
X169925380Y-93379285D01*
X169877761Y-93474523D01*
X169782523Y-93522142D01*
X169401571Y-93522142D01*
X169306333Y-93474523D01*
X169258714Y-93379285D01*
X169258714Y-93188809D01*
X169306333Y-93093571D01*
X169401571Y-93045952D01*
X169496809Y-93045952D01*
X169592047Y-93522142D01*
X169925380Y-92617380D02*
X169258714Y-92617380D01*
X169449190Y-92617380D02*
X169353952Y-92569761D01*
X169306333Y-92522142D01*
X169258714Y-92426904D01*
X169258714Y-92331666D01*
X170575380Y-109045952D02*
X171384904Y-109045952D01*
X171480142Y-108998333D01*
X171527761Y-108950714D01*
X171575380Y-108855476D01*
X171575380Y-108665000D01*
X171527761Y-108569761D01*
X171480142Y-108522142D01*
X171384904Y-108474523D01*
X170575380Y-108474523D01*
X171575380Y-107998333D02*
X170575380Y-107998333D01*
X171575380Y-107426904D01*
X170575380Y-107426904D01*
X170575380Y-106760238D02*
X170575380Y-106569761D01*
X170623000Y-106474523D01*
X170718238Y-106379285D01*
X170908714Y-106331666D01*
X171242047Y-106331666D01*
X171432523Y-106379285D01*
X171527761Y-106474523D01*
X171575380Y-106569761D01*
X171575380Y-106760238D01*
X171527761Y-106855476D01*
X171432523Y-106950714D01*
X171242047Y-106998333D01*
X170908714Y-106998333D01*
X170718238Y-106950714D01*
X170623000Y-106855476D01*
X170575380Y-106760238D01*
X171575380Y-104569761D02*
X171099190Y-104903095D01*
X171575380Y-105141190D02*
X170575380Y-105141190D01*
X170575380Y-104760238D01*
X170623000Y-104665000D01*
X170670619Y-104617380D01*
X170765857Y-104569761D01*
X170908714Y-104569761D01*
X171003952Y-104617380D01*
X171051571Y-104665000D01*
X171099190Y-104760238D01*
X171099190Y-105141190D01*
X170575380Y-104236428D02*
X170575380Y-103617380D01*
X170956333Y-103950714D01*
X170956333Y-103807857D01*
X171003952Y-103712619D01*
X171051571Y-103665000D01*
X171146809Y-103617380D01*
X171384904Y-103617380D01*
X171480142Y-103665000D01*
X171527761Y-103712619D01*
X171575380Y-103807857D01*
X171575380Y-104093571D01*
X171527761Y-104188809D01*
X171480142Y-104236428D01*
X171527761Y-102474523D02*
X171575380Y-102331666D01*
X171575380Y-102093571D01*
X171527761Y-101998333D01*
X171480142Y-101950714D01*
X171384904Y-101903095D01*
X171289666Y-101903095D01*
X171194428Y-101950714D01*
X171146809Y-101998333D01*
X171099190Y-102093571D01*
X171051571Y-102284047D01*
X171003952Y-102379285D01*
X170956333Y-102426904D01*
X170861095Y-102474523D01*
X170765857Y-102474523D01*
X170670619Y-102426904D01*
X170623000Y-102379285D01*
X170575380Y-102284047D01*
X170575380Y-102045952D01*
X170623000Y-101903095D01*
X171575380Y-101474523D02*
X170575380Y-101474523D01*
X171575380Y-101045952D02*
X171051571Y-101045952D01*
X170956333Y-101093571D01*
X170908714Y-101188809D01*
X170908714Y-101331666D01*
X170956333Y-101426904D01*
X171003952Y-101474523D01*
X171575380Y-100569761D02*
X170908714Y-100569761D01*
X170575380Y-100569761D02*
X170623000Y-100617380D01*
X170670619Y-100569761D01*
X170623000Y-100522142D01*
X170575380Y-100569761D01*
X170670619Y-100569761D01*
X171527761Y-99712619D02*
X171575380Y-99807857D01*
X171575380Y-99998333D01*
X171527761Y-100093571D01*
X171432523Y-100141190D01*
X171051571Y-100141190D01*
X170956333Y-100093571D01*
X170908714Y-99998333D01*
X170908714Y-99807857D01*
X170956333Y-99712619D01*
X171051571Y-99665000D01*
X171146809Y-99665000D01*
X171242047Y-100141190D01*
X171575380Y-99093571D02*
X171527761Y-99188809D01*
X171432523Y-99236428D01*
X170575380Y-99236428D01*
X171575380Y-98284047D02*
X170575380Y-98284047D01*
X171527761Y-98284047D02*
X171575380Y-98379285D01*
X171575380Y-98569761D01*
X171527761Y-98665000D01*
X171480142Y-98712619D01*
X171384904Y-98760238D01*
X171099190Y-98760238D01*
X171003952Y-98712619D01*
X170956333Y-98665000D01*
X170908714Y-98569761D01*
X170908714Y-98379285D01*
X170956333Y-98284047D01*
X173225380Y-110569761D02*
X172225380Y-110569761D01*
X172225380Y-110331666D01*
X172273000Y-110188809D01*
X172368238Y-110093571D01*
X172463476Y-110045952D01*
X172653952Y-109998333D01*
X172796809Y-109998333D01*
X172987285Y-110045952D01*
X173082523Y-110093571D01*
X173177761Y-110188809D01*
X173225380Y-110331666D01*
X173225380Y-110569761D01*
X173225380Y-109569761D02*
X172558714Y-109569761D01*
X172749190Y-109569761D02*
X172653952Y-109522142D01*
X172606333Y-109474523D01*
X172558714Y-109379285D01*
X172558714Y-109284047D01*
X172558714Y-109045952D02*
X173225380Y-108807857D01*
X172558714Y-108569761D01*
X172653952Y-108045952D02*
X172606333Y-108141190D01*
X172558714Y-108188809D01*
X172463476Y-108236428D01*
X172415857Y-108236428D01*
X172320619Y-108188809D01*
X172273000Y-108141190D01*
X172225380Y-108045952D01*
X172225380Y-107855476D01*
X172273000Y-107760238D01*
X172320619Y-107712619D01*
X172415857Y-107665000D01*
X172463476Y-107665000D01*
X172558714Y-107712619D01*
X172606333Y-107760238D01*
X172653952Y-107855476D01*
X172653952Y-108045952D01*
X172701571Y-108141190D01*
X172749190Y-108188809D01*
X172844428Y-108236428D01*
X173034904Y-108236428D01*
X173130142Y-108188809D01*
X173177761Y-108141190D01*
X173225380Y-108045952D01*
X173225380Y-107855476D01*
X173177761Y-107760238D01*
X173130142Y-107712619D01*
X173034904Y-107665000D01*
X172844428Y-107665000D01*
X172749190Y-107712619D01*
X172701571Y-107760238D01*
X172653952Y-107855476D01*
X172225380Y-107331666D02*
X172225380Y-106712619D01*
X172606333Y-107045952D01*
X172606333Y-106903095D01*
X172653952Y-106807857D01*
X172701571Y-106760238D01*
X172796809Y-106712619D01*
X173034904Y-106712619D01*
X173130142Y-106760238D01*
X173177761Y-106807857D01*
X173225380Y-106903095D01*
X173225380Y-107188809D01*
X173177761Y-107284047D01*
X173130142Y-107331666D01*
X173225380Y-105760238D02*
X173225380Y-106331666D01*
X173225380Y-106045952D02*
X172225380Y-106045952D01*
X172368238Y-106141190D01*
X172463476Y-106236428D01*
X172511095Y-106331666D01*
X172225380Y-105426904D02*
X172225380Y-104807857D01*
X172606333Y-105141190D01*
X172606333Y-104998333D01*
X172653952Y-104903095D01*
X172701571Y-104855476D01*
X172796809Y-104807857D01*
X173034904Y-104807857D01*
X173130142Y-104855476D01*
X173177761Y-104903095D01*
X173225380Y-104998333D01*
X173225380Y-105284047D01*
X173177761Y-105379285D01*
X173130142Y-105426904D01*
X173177761Y-104331666D02*
X173225380Y-104331666D01*
X173320619Y-104379285D01*
X173368238Y-104426904D01*
X173225380Y-103141190D02*
X172225380Y-103141190D01*
X172939666Y-102807857D01*
X172225380Y-102474523D01*
X173225380Y-102474523D01*
X173225380Y-101569761D02*
X172701571Y-101569761D01*
X172606333Y-101617380D01*
X172558714Y-101712619D01*
X172558714Y-101903095D01*
X172606333Y-101998333D01*
X173177761Y-101569761D02*
X173225380Y-101665000D01*
X173225380Y-101903095D01*
X173177761Y-101998333D01*
X173082523Y-102045952D01*
X172987285Y-102045952D01*
X172892047Y-101998333D01*
X172844428Y-101903095D01*
X172844428Y-101665000D01*
X172796809Y-101569761D01*
X173225380Y-101188809D02*
X172558714Y-100665000D01*
X172558714Y-101188809D02*
X173225380Y-100665000D01*
X172320619Y-99569761D02*
X172273000Y-99522142D01*
X172225380Y-99426904D01*
X172225380Y-99188809D01*
X172273000Y-99093571D01*
X172320619Y-99045952D01*
X172415857Y-98998333D01*
X172511095Y-98998333D01*
X172653952Y-99045952D01*
X173225380Y-99617380D01*
X173225380Y-98998333D01*
X173130142Y-98569761D02*
X173177761Y-98522142D01*
X173225380Y-98569761D01*
X173177761Y-98617380D01*
X173130142Y-98569761D01*
X173225380Y-98569761D01*
X172225380Y-97617380D02*
X172225380Y-98093571D01*
X172701571Y-98141190D01*
X172653952Y-98093571D01*
X172606333Y-97998333D01*
X172606333Y-97760238D01*
X172653952Y-97665000D01*
X172701571Y-97617380D01*
X172796809Y-97569761D01*
X173034904Y-97569761D01*
X173130142Y-97617380D01*
X173177761Y-97665000D01*
X173225380Y-97760238D01*
X173225380Y-97998333D01*
X173177761Y-98093571D01*
X173130142Y-98141190D01*
X172939666Y-97188809D02*
X172939666Y-96712619D01*
X173225380Y-97284047D02*
X172225380Y-96950714D01*
X173225380Y-96617380D01*
X174589666Y-109712619D02*
X174589666Y-109236428D01*
X174875380Y-109807857D02*
X173875380Y-109474523D01*
X174875380Y-109141190D01*
X174827761Y-108855476D02*
X174875380Y-108712619D01*
X174875380Y-108474523D01*
X174827761Y-108379285D01*
X174780142Y-108331666D01*
X174684904Y-108284047D01*
X174589666Y-108284047D01*
X174494428Y-108331666D01*
X174446809Y-108379285D01*
X174399190Y-108474523D01*
X174351571Y-108665000D01*
X174303952Y-108760238D01*
X174256333Y-108807857D01*
X174161095Y-108855476D01*
X174065857Y-108855476D01*
X173970619Y-108807857D01*
X173923000Y-108760238D01*
X173875380Y-108665000D01*
X173875380Y-108426904D01*
X173923000Y-108284047D01*
X173875380Y-107379285D02*
X173875380Y-107855476D01*
X174351571Y-107903095D01*
X174303952Y-107855476D01*
X174256333Y-107760238D01*
X174256333Y-107522142D01*
X174303952Y-107426904D01*
X174351571Y-107379285D01*
X174446809Y-107331666D01*
X174684904Y-107331666D01*
X174780142Y-107379285D01*
X174827761Y-107426904D01*
X174875380Y-107522142D01*
X174875380Y-107760238D01*
X174827761Y-107855476D01*
X174780142Y-107903095D01*
X173875380Y-106712619D02*
X173875380Y-106617380D01*
X173923000Y-106522142D01*
X173970619Y-106474523D01*
X174065857Y-106426904D01*
X174256333Y-106379285D01*
X174494428Y-106379285D01*
X174684904Y-106426904D01*
X174780142Y-106474523D01*
X174827761Y-106522142D01*
X174875380Y-106617380D01*
X174875380Y-106712619D01*
X174827761Y-106807857D01*
X174780142Y-106855476D01*
X174684904Y-106903095D01*
X174494428Y-106950714D01*
X174256333Y-106950714D01*
X174065857Y-106903095D01*
X173970619Y-106855476D01*
X173923000Y-106807857D01*
X173875380Y-106712619D01*
X174208714Y-105522142D02*
X174875380Y-105522142D01*
X173827761Y-105760238D02*
X174542047Y-105998333D01*
X174542047Y-105379285D01*
X173875380Y-105093571D02*
X173875380Y-104426904D01*
X174875380Y-104855476D01*
X174827761Y-103998333D02*
X174875380Y-103998333D01*
X174970619Y-104045952D01*
X175018238Y-104093571D01*
X174589666Y-102855476D02*
X174589666Y-102379285D01*
X174875380Y-102950714D02*
X173875380Y-102617380D01*
X174875380Y-102284047D01*
X174827761Y-101998333D02*
X174875380Y-101855476D01*
X174875380Y-101617380D01*
X174827761Y-101522142D01*
X174780142Y-101474523D01*
X174684904Y-101426904D01*
X174589666Y-101426904D01*
X174494428Y-101474523D01*
X174446809Y-101522142D01*
X174399190Y-101617380D01*
X174351571Y-101807857D01*
X174303952Y-101903095D01*
X174256333Y-101950714D01*
X174161095Y-101998333D01*
X174065857Y-101998333D01*
X173970619Y-101950714D01*
X173923000Y-101903095D01*
X173875380Y-101807857D01*
X173875380Y-101569761D01*
X173923000Y-101426904D01*
X173875380Y-100522142D02*
X173875380Y-100998333D01*
X174351571Y-101045952D01*
X174303952Y-100998333D01*
X174256333Y-100903095D01*
X174256333Y-100665000D01*
X174303952Y-100569761D01*
X174351571Y-100522142D01*
X174446809Y-100474523D01*
X174684904Y-100474523D01*
X174780142Y-100522142D01*
X174827761Y-100569761D01*
X174875380Y-100665000D01*
X174875380Y-100903095D01*
X174827761Y-100998333D01*
X174780142Y-101045952D01*
X173875380Y-99617380D02*
X173875380Y-99807857D01*
X173923000Y-99903095D01*
X173970619Y-99950714D01*
X174113476Y-100045952D01*
X174303952Y-100093571D01*
X174684904Y-100093571D01*
X174780142Y-100045952D01*
X174827761Y-99998333D01*
X174875380Y-99903095D01*
X174875380Y-99712619D01*
X174827761Y-99617380D01*
X174780142Y-99569761D01*
X174684904Y-99522142D01*
X174446809Y-99522142D01*
X174351571Y-99569761D01*
X174303952Y-99617380D01*
X174256333Y-99712619D01*
X174256333Y-99903095D01*
X174303952Y-99998333D01*
X174351571Y-100045952D01*
X174446809Y-100093571D01*
X173875380Y-98903095D02*
X173875380Y-98807857D01*
X173923000Y-98712619D01*
X173970619Y-98665000D01*
X174065857Y-98617380D01*
X174256333Y-98569761D01*
X174494428Y-98569761D01*
X174684904Y-98617380D01*
X174780142Y-98665000D01*
X174827761Y-98712619D01*
X174875380Y-98807857D01*
X174875380Y-98903095D01*
X174827761Y-98998333D01*
X174780142Y-99045952D01*
X174684904Y-99093571D01*
X174494428Y-99141190D01*
X174256333Y-99141190D01*
X174065857Y-99093571D01*
X173970619Y-99045952D01*
X173923000Y-98998333D01*
X173875380Y-98903095D01*
X173875380Y-97950714D02*
X173875380Y-97855476D01*
X173923000Y-97760238D01*
X173970619Y-97712619D01*
X174065857Y-97665000D01*
X174256333Y-97617380D01*
X174494428Y-97617380D01*
X174684904Y-97665000D01*
X174780142Y-97712619D01*
X174827761Y-97760238D01*
X174875380Y-97855476D01*
X174875380Y-97950714D01*
X174827761Y-98045952D01*
X174780142Y-98093571D01*
X174684904Y-98141190D01*
X174494428Y-98188809D01*
X174256333Y-98188809D01*
X174065857Y-98141190D01*
X173970619Y-98093571D01*
X173923000Y-98045952D01*
X173875380Y-97950714D01*
X175525380Y-107855476D02*
X176525380Y-107522142D01*
X175525380Y-107188809D01*
X176477761Y-106474523D02*
X176525380Y-106569761D01*
X176525380Y-106760238D01*
X176477761Y-106855476D01*
X176382523Y-106903095D01*
X176001571Y-106903095D01*
X175906333Y-106855476D01*
X175858714Y-106760238D01*
X175858714Y-106569761D01*
X175906333Y-106474523D01*
X176001571Y-106426904D01*
X176096809Y-106426904D01*
X176192047Y-106903095D01*
X176525380Y-105998333D02*
X175858714Y-105998333D01*
X176049190Y-105998333D02*
X175953952Y-105950714D01*
X175906333Y-105903095D01*
X175858714Y-105807857D01*
X175858714Y-105712619D01*
X176477761Y-105426904D02*
X176525380Y-105331666D01*
X176525380Y-105141190D01*
X176477761Y-105045952D01*
X176382523Y-104998333D01*
X176334904Y-104998333D01*
X176239666Y-105045952D01*
X176192047Y-105141190D01*
X176192047Y-105284047D01*
X176144428Y-105379285D01*
X176049190Y-105426904D01*
X176001571Y-105426904D01*
X175906333Y-105379285D01*
X175858714Y-105284047D01*
X175858714Y-105141190D01*
X175906333Y-105045952D01*
X176525380Y-104569761D02*
X175858714Y-104569761D01*
X175525380Y-104569761D02*
X175573000Y-104617380D01*
X175620619Y-104569761D01*
X175573000Y-104522142D01*
X175525380Y-104569761D01*
X175620619Y-104569761D01*
X176525380Y-103950714D02*
X176477761Y-104045952D01*
X176430142Y-104093571D01*
X176334904Y-104141190D01*
X176049190Y-104141190D01*
X175953952Y-104093571D01*
X175906333Y-104045952D01*
X175858714Y-103950714D01*
X175858714Y-103807857D01*
X175906333Y-103712619D01*
X175953952Y-103665000D01*
X176049190Y-103617380D01*
X176334904Y-103617380D01*
X176430142Y-103665000D01*
X176477761Y-103712619D01*
X176525380Y-103807857D01*
X176525380Y-103950714D01*
X175858714Y-103188809D02*
X176525380Y-103188809D01*
X175953952Y-103188809D02*
X175906333Y-103141190D01*
X175858714Y-103045952D01*
X175858714Y-102903095D01*
X175906333Y-102807857D01*
X176001571Y-102760238D01*
X176525380Y-102760238D01*
X176525380Y-100998333D02*
X176525380Y-101569761D01*
X176525380Y-101284047D02*
X175525380Y-101284047D01*
X175668238Y-101379285D01*
X175763476Y-101474523D01*
X175811095Y-101569761D01*
X176430142Y-100569761D02*
X176477761Y-100522142D01*
X176525380Y-100569761D01*
X176477761Y-100617380D01*
X176430142Y-100569761D01*
X176525380Y-100569761D01*
X175525380Y-99903095D02*
X175525380Y-99807857D01*
X175573000Y-99712619D01*
X175620619Y-99665000D01*
X175715857Y-99617380D01*
X175906333Y-99569761D01*
X176144428Y-99569761D01*
X176334904Y-99617380D01*
X176430142Y-99665000D01*
X176477761Y-99712619D01*
X176525380Y-99807857D01*
X176525380Y-99903095D01*
X176477761Y-99998333D01*
X176430142Y-100045952D01*
X176334904Y-100093571D01*
X176144428Y-100141190D01*
X175906333Y-100141190D01*
X175715857Y-100093571D01*
X175620619Y-100045952D01*
X175573000Y-99998333D01*
X175525380Y-99903095D01*
X178175380Y-112903095D02*
X177175380Y-112903095D01*
X177175380Y-112665000D01*
X177223000Y-112522142D01*
X177318238Y-112426904D01*
X177413476Y-112379285D01*
X177603952Y-112331666D01*
X177746809Y-112331666D01*
X177937285Y-112379285D01*
X178032523Y-112426904D01*
X178127761Y-112522142D01*
X178175380Y-112665000D01*
X178175380Y-112903095D01*
X178127761Y-111522142D02*
X178175380Y-111617380D01*
X178175380Y-111807857D01*
X178127761Y-111903095D01*
X178032523Y-111950714D01*
X177651571Y-111950714D01*
X177556333Y-111903095D01*
X177508714Y-111807857D01*
X177508714Y-111617380D01*
X177556333Y-111522142D01*
X177651571Y-111474523D01*
X177746809Y-111474523D01*
X177842047Y-111950714D01*
X178127761Y-111093571D02*
X178175380Y-110998333D01*
X178175380Y-110807857D01*
X178127761Y-110712619D01*
X178032523Y-110665000D01*
X177984904Y-110665000D01*
X177889666Y-110712619D01*
X177842047Y-110807857D01*
X177842047Y-110950714D01*
X177794428Y-111045952D01*
X177699190Y-111093571D01*
X177651571Y-111093571D01*
X177556333Y-111045952D01*
X177508714Y-110950714D01*
X177508714Y-110807857D01*
X177556333Y-110712619D01*
X178175380Y-110236428D02*
X177508714Y-110236428D01*
X177175380Y-110236428D02*
X177223000Y-110284047D01*
X177270619Y-110236428D01*
X177223000Y-110188809D01*
X177175380Y-110236428D01*
X177270619Y-110236428D01*
X177508714Y-109331666D02*
X178318238Y-109331666D01*
X178413476Y-109379285D01*
X178461095Y-109426904D01*
X178508714Y-109522142D01*
X178508714Y-109665000D01*
X178461095Y-109760238D01*
X178127761Y-109331666D02*
X178175380Y-109426904D01*
X178175380Y-109617380D01*
X178127761Y-109712619D01*
X178080142Y-109760238D01*
X177984904Y-109807857D01*
X177699190Y-109807857D01*
X177603952Y-109760238D01*
X177556333Y-109712619D01*
X177508714Y-109617380D01*
X177508714Y-109426904D01*
X177556333Y-109331666D01*
X177508714Y-108855476D02*
X178175380Y-108855476D01*
X177603952Y-108855476D02*
X177556333Y-108807857D01*
X177508714Y-108712619D01*
X177508714Y-108569761D01*
X177556333Y-108474523D01*
X177651571Y-108426904D01*
X178175380Y-108426904D01*
X177651571Y-106855476D02*
X177699190Y-106712619D01*
X177746809Y-106665000D01*
X177842047Y-106617380D01*
X177984904Y-106617380D01*
X178080142Y-106665000D01*
X178127761Y-106712619D01*
X178175380Y-106807857D01*
X178175380Y-107188809D01*
X177175380Y-107188809D01*
X177175380Y-106855476D01*
X177223000Y-106760238D01*
X177270619Y-106712619D01*
X177365857Y-106665000D01*
X177461095Y-106665000D01*
X177556333Y-106712619D01*
X177603952Y-106760238D01*
X177651571Y-106855476D01*
X177651571Y-107188809D01*
X177508714Y-106284047D02*
X178175380Y-106045952D01*
X177508714Y-105807857D02*
X178175380Y-106045952D01*
X178413476Y-106141190D01*
X178461095Y-106188809D01*
X178508714Y-106284047D01*
X177175380Y-104760238D02*
X177175380Y-104093571D01*
X178175380Y-104760238D01*
X178175380Y-104093571D01*
X177699190Y-103522142D02*
X178175380Y-103522142D01*
X177175380Y-103855476D02*
X177699190Y-103522142D01*
X177175380Y-103188809D01*
X178127761Y-102807857D02*
X178175380Y-102807857D01*
X178270619Y-102855476D01*
X178318238Y-102903095D01*
X177651571Y-101284047D02*
X177651571Y-101617380D01*
X178175380Y-101617380D02*
X177175380Y-101617380D01*
X177175380Y-101141190D01*
X178127761Y-100379285D02*
X178175380Y-100474523D01*
X178175380Y-100665000D01*
X178127761Y-100760238D01*
X178032523Y-100807857D01*
X177651571Y-100807857D01*
X177556333Y-100760238D01*
X177508714Y-100665000D01*
X177508714Y-100474523D01*
X177556333Y-100379285D01*
X177651571Y-100331666D01*
X177746809Y-100331666D01*
X177842047Y-100807857D01*
X178175380Y-99903095D02*
X177175380Y-99903095D01*
X177556333Y-99903095D02*
X177508714Y-99807857D01*
X177508714Y-99617380D01*
X177556333Y-99522142D01*
X177603952Y-99474523D01*
X177699190Y-99426904D01*
X177984904Y-99426904D01*
X178080142Y-99474523D01*
X178127761Y-99522142D01*
X178175380Y-99617380D01*
X178175380Y-99807857D01*
X178127761Y-99903095D01*
X178127761Y-98950714D02*
X178175380Y-98950714D01*
X178270619Y-98998333D01*
X178318238Y-99045952D01*
X177270619Y-97807857D02*
X177223000Y-97760238D01*
X177175380Y-97665000D01*
X177175380Y-97426904D01*
X177223000Y-97331666D01*
X177270619Y-97284047D01*
X177365857Y-97236428D01*
X177461095Y-97236428D01*
X177603952Y-97284047D01*
X178175380Y-97855476D01*
X178175380Y-97236428D01*
X177175380Y-96617380D02*
X177175380Y-96522142D01*
X177223000Y-96426904D01*
X177270619Y-96379285D01*
X177365857Y-96331666D01*
X177556333Y-96284047D01*
X177794428Y-96284047D01*
X177984904Y-96331666D01*
X178080142Y-96379285D01*
X178127761Y-96426904D01*
X178175380Y-96522142D01*
X178175380Y-96617380D01*
X178127761Y-96712619D01*
X178080142Y-96760238D01*
X177984904Y-96807857D01*
X177794428Y-96855476D01*
X177556333Y-96855476D01*
X177365857Y-96807857D01*
X177270619Y-96760238D01*
X177223000Y-96712619D01*
X177175380Y-96617380D01*
X177270619Y-95903095D02*
X177223000Y-95855476D01*
X177175380Y-95760238D01*
X177175380Y-95522142D01*
X177223000Y-95426904D01*
X177270619Y-95379285D01*
X177365857Y-95331666D01*
X177461095Y-95331666D01*
X177603952Y-95379285D01*
X178175380Y-95950714D01*
X178175380Y-95331666D01*
X177175380Y-94998333D02*
X177175380Y-94379285D01*
X177556333Y-94712619D01*
X177556333Y-94569761D01*
X177603952Y-94474523D01*
X177651571Y-94426904D01*
X177746809Y-94379285D01*
X177984904Y-94379285D01*
X178080142Y-94426904D01*
X178127761Y-94474523D01*
X178175380Y-94569761D01*
X178175380Y-94855476D01*
X178127761Y-94950714D01*
X178080142Y-94998333D01*
D10*
X111919428Y-122268571D02*
X111919428Y-120768571D01*
X112633714Y-121268571D02*
X112633714Y-122268571D01*
X112633714Y-121411428D02*
X112705142Y-121340000D01*
X112848000Y-121268571D01*
X113062285Y-121268571D01*
X113205142Y-121340000D01*
X113276571Y-121482857D01*
X113276571Y-122268571D01*
X113990857Y-121268571D02*
X113990857Y-122768571D01*
X113990857Y-121340000D02*
X114133714Y-121268571D01*
X114419428Y-121268571D01*
X114562285Y-121340000D01*
X114633714Y-121411428D01*
X114705142Y-121554285D01*
X114705142Y-121982857D01*
X114633714Y-122125714D01*
X114562285Y-122197142D01*
X114419428Y-122268571D01*
X114133714Y-122268571D01*
X113990857Y-122197142D01*
X115990857Y-121268571D02*
X115990857Y-122268571D01*
X115348000Y-121268571D02*
X115348000Y-122054285D01*
X115419428Y-122197142D01*
X115562285Y-122268571D01*
X115776571Y-122268571D01*
X115919428Y-122197142D01*
X115990857Y-122125714D01*
X116490857Y-121268571D02*
X117062285Y-121268571D01*
X116705142Y-120768571D02*
X116705142Y-122054285D01*
X116776571Y-122197142D01*
X116919428Y-122268571D01*
X117062285Y-122268571D01*
X118705142Y-122268571D02*
X118705142Y-120768571D01*
X119276571Y-120768571D01*
X119419428Y-120840000D01*
X119490857Y-120911428D01*
X119562285Y-121054285D01*
X119562285Y-121268571D01*
X119490857Y-121411428D01*
X119419428Y-121482857D01*
X119276571Y-121554285D01*
X118705142Y-121554285D01*
X120419428Y-122268571D02*
X120276571Y-122197142D01*
X120205142Y-122125714D01*
X120133714Y-121982857D01*
X120133714Y-121554285D01*
X120205142Y-121411428D01*
X120276571Y-121340000D01*
X120419428Y-121268571D01*
X120633714Y-121268571D01*
X120776571Y-121340000D01*
X120848000Y-121411428D01*
X120919428Y-121554285D01*
X120919428Y-121982857D01*
X120848000Y-122125714D01*
X120776571Y-122197142D01*
X120633714Y-122268571D01*
X120419428Y-122268571D01*
X121419428Y-121268571D02*
X121705142Y-122268571D01*
X121990857Y-121554285D01*
X122276571Y-122268571D01*
X122562285Y-121268571D01*
X123705142Y-122197142D02*
X123562285Y-122268571D01*
X123276571Y-122268571D01*
X123133714Y-122197142D01*
X123062285Y-122054285D01*
X123062285Y-121482857D01*
X123133714Y-121340000D01*
X123276571Y-121268571D01*
X123562285Y-121268571D01*
X123705142Y-121340000D01*
X123776571Y-121482857D01*
X123776571Y-121625714D01*
X123062285Y-121768571D01*
X124419428Y-122268571D02*
X124419428Y-121268571D01*
X124419428Y-121554285D02*
X124490857Y-121411428D01*
X124562285Y-121340000D01*
X124705142Y-121268571D01*
X124848000Y-121268571D01*
X113133714Y-124818571D02*
X112276571Y-124818571D01*
X112705142Y-124818571D02*
X112705142Y-123318571D01*
X112562285Y-123532857D01*
X112419428Y-123675714D01*
X112276571Y-123747142D01*
X113705142Y-123461428D02*
X113776571Y-123390000D01*
X113919428Y-123318571D01*
X114276571Y-123318571D01*
X114419428Y-123390000D01*
X114490857Y-123461428D01*
X114562285Y-123604285D01*
X114562285Y-123747142D01*
X114490857Y-123961428D01*
X113633714Y-124818571D01*
X114562285Y-124818571D01*
X115205142Y-124247142D02*
X116348000Y-124247142D01*
X116919428Y-123318571D02*
X117848000Y-123318571D01*
X117348000Y-123890000D01*
X117562285Y-123890000D01*
X117705142Y-123961428D01*
X117776571Y-124032857D01*
X117848000Y-124175714D01*
X117848000Y-124532857D01*
X117776571Y-124675714D01*
X117705142Y-124747142D01*
X117562285Y-124818571D01*
X117133714Y-124818571D01*
X116990857Y-124747142D01*
X116919428Y-124675714D01*
X119205142Y-123318571D02*
X118490857Y-123318571D01*
X118419428Y-124032857D01*
X118490857Y-123961428D01*
X118633714Y-123890000D01*
X118990857Y-123890000D01*
X119133714Y-123961428D01*
X119205142Y-124032857D01*
X119276571Y-124175714D01*
X119276571Y-124532857D01*
X119205142Y-124675714D01*
X119133714Y-124747142D01*
X118990857Y-124818571D01*
X118633714Y-124818571D01*
X118490857Y-124747142D01*
X118419428Y-124675714D01*
X119705142Y-123318571D02*
X120205142Y-124818571D01*
X120705142Y-123318571D01*
X122348000Y-124247142D02*
X123490857Y-124247142D01*
X124205142Y-123818571D02*
X125348000Y-124247142D01*
X124205142Y-124675714D01*
D11*
X139390380Y-120999285D02*
X139390380Y-121570714D01*
X139390380Y-121285000D02*
X138390380Y-121285000D01*
X138533238Y-121380238D01*
X138628476Y-121475476D01*
X138676095Y-121570714D01*
D12*
%TO.C,R8*%
X165690224Y-81037500D02*
X165180776Y-81037500D01*
X165690224Y-79992500D02*
X165180776Y-79992500D01*
%TO.C,U8*%
X114928000Y-105355000D02*
X112268000Y-105355000D01*
X114928000Y-110495000D02*
X114928000Y-105355000D01*
X112268000Y-110495000D02*
X112268000Y-105355000D01*
X114928000Y-110495000D02*
X112268000Y-110495000D01*
X114928000Y-111765000D02*
X114928000Y-113095000D01*
X114928000Y-113095000D02*
X113598000Y-113095000D01*
D11*
%TO.C,P6*%
X179324000Y-118745000D02*
G75*
G03*
X179324000Y-118745000I-2286000J0D01*
G01*
%TO.C,P7*%
X128524000Y-75565000D02*
G75*
G03*
X128524000Y-75565000I-2286000J0D01*
G01*
%TO.C,P8*%
X179324000Y-90805000D02*
G75*
G03*
X179324000Y-90805000I-2286000J0D01*
G01*
D12*
%TO.C,BT1*%
X127728000Y-122435000D02*
X127728000Y-125095000D01*
X130328000Y-122435000D02*
X127728000Y-122435000D01*
X130328000Y-125095000D02*
X127728000Y-125095000D01*
X130328000Y-122435000D02*
X130328000Y-125095000D01*
X131598000Y-122435000D02*
X132928000Y-122435000D01*
X132928000Y-122435000D02*
X132928000Y-123765000D01*
%TO.C,C16*%
X124144267Y-114425000D02*
X123851733Y-114425000D01*
X124144267Y-113405000D02*
X123851733Y-113405000D01*
%TO.C,C17*%
X124406767Y-107055000D02*
X124114233Y-107055000D01*
X124406767Y-108075000D02*
X124114233Y-108075000D01*
%TO.C,C19*%
X134281767Y-97955000D02*
X133989233Y-97955000D01*
X134281767Y-98975000D02*
X133989233Y-98975000D01*
%TO.C,C20*%
X142956767Y-88475000D02*
X142664233Y-88475000D01*
X142956767Y-87455000D02*
X142664233Y-87455000D01*
%TO.C,C21*%
X132008000Y-97698767D02*
X132008000Y-97406233D01*
X130988000Y-97698767D02*
X130988000Y-97406233D01*
%TO.C,D7*%
X153548000Y-109500000D02*
X157433000Y-109500000D01*
X157433000Y-109500000D02*
X157433000Y-107230000D01*
X157433000Y-107230000D02*
X153548000Y-107230000D01*
%TO.C,J3*%
X162808000Y-82035000D02*
X162808000Y-84695000D01*
X173028000Y-82035000D02*
X162808000Y-82035000D01*
X173028000Y-84695000D02*
X162808000Y-84695000D01*
X173028000Y-82035000D02*
X173028000Y-84695000D01*
X174298000Y-82035000D02*
X175628000Y-82035000D01*
X175628000Y-82035000D02*
X175628000Y-83365000D01*
%TO.C,R1*%
X131875500Y-81419724D02*
X131875500Y-80910276D01*
X132920500Y-81419724D02*
X132920500Y-80910276D01*
%TO.C,R2*%
X130520500Y-81407224D02*
X130520500Y-80897776D01*
X129475500Y-81407224D02*
X129475500Y-80897776D01*
%TO.C,R6*%
X169330776Y-78242500D02*
X169840224Y-78242500D01*
X169330776Y-79287500D02*
X169840224Y-79287500D01*
%TO.C,R7*%
X169355776Y-81087500D02*
X169865224Y-81087500D01*
X169355776Y-80042500D02*
X169865224Y-80042500D01*
%TO.C,R11*%
X159715224Y-107842500D02*
X159205776Y-107842500D01*
X159715224Y-108887500D02*
X159205776Y-108887500D01*
%TO.C,R12*%
X118720500Y-111010276D02*
X118720500Y-111519724D01*
X117675500Y-111010276D02*
X117675500Y-111519724D01*
%TO.C,R13*%
X117575500Y-105010276D02*
X117575500Y-105519724D01*
X118620500Y-105010276D02*
X118620500Y-105519724D01*
%TO.C,R16*%
X142605776Y-85642500D02*
X143115224Y-85642500D01*
X142605776Y-86687500D02*
X143115224Y-86687500D01*
%TO.C,U1*%
X157378000Y-110115000D02*
X155878000Y-110115000D01*
X155878000Y-110115000D02*
X155878000Y-110385000D01*
X155878000Y-110385000D02*
X153048000Y-110385000D01*
X157378000Y-117015000D02*
X155878000Y-117015000D01*
X155878000Y-117015000D02*
X155878000Y-116745000D01*
X155878000Y-116745000D02*
X154778000Y-116745000D01*
%TO.C,U4*%
X123998000Y-109655000D02*
X120398000Y-109655000D01*
X123998000Y-109655000D02*
X126198000Y-109655000D01*
X123998000Y-112875000D02*
X121798000Y-112875000D01*
X123998000Y-112875000D02*
X126198000Y-112875000D01*
%TO.C,U5*%
X124198000Y-106675000D02*
X126398000Y-106675000D01*
X124198000Y-106675000D02*
X121998000Y-106675000D01*
X124198000Y-103455000D02*
X126398000Y-103455000D01*
X124198000Y-103455000D02*
X120598000Y-103455000D01*
D13*
%TO.C,U6*%
X133163000Y-97205000D02*
G75*
G03*
X133163000Y-97205000I-100000J0D01*
G01*
D14*
X132428000Y-95165000D02*
X132428000Y-90765000D01*
X142768000Y-95165000D02*
X142768000Y-90765000D01*
D12*
%TO.C,C1*%
X152358000Y-109555000D02*
X150008000Y-109555000D01*
X145538000Y-109555000D02*
X147888000Y-109555000D01*
X145538000Y-115310563D02*
X145538000Y-109555000D01*
X152358000Y-115310563D02*
X152358000Y-109555000D01*
X151293563Y-116375000D02*
X150008000Y-116375000D01*
X146602437Y-116375000D02*
X147888000Y-116375000D01*
X146602437Y-116375000D02*
X145538000Y-115310563D01*
X151293563Y-116375000D02*
X152358000Y-115310563D01*
X147100500Y-117402500D02*
X147100500Y-116615000D01*
X146706750Y-117008750D02*
X147494250Y-117008750D01*
%TO.C,C2*%
X141981767Y-97255000D02*
X141689233Y-97255000D01*
X141981767Y-98275000D02*
X141689233Y-98275000D01*
%TO.C,C3*%
X125056750Y-97208750D02*
X125844250Y-97208750D01*
X125450500Y-97602500D02*
X125450500Y-96815000D01*
X129643563Y-96575000D02*
X130708000Y-95510563D01*
X124952437Y-96575000D02*
X123888000Y-95510563D01*
X124952437Y-96575000D02*
X126238000Y-96575000D01*
X129643563Y-96575000D02*
X128358000Y-96575000D01*
X130708000Y-95510563D02*
X130708000Y-89755000D01*
X123888000Y-95510563D02*
X123888000Y-89755000D01*
X123888000Y-89755000D02*
X126238000Y-89755000D01*
X130708000Y-89755000D02*
X128358000Y-89755000D01*
%TO.C,R8*%
D11*
X165268833Y-82397380D02*
X164935500Y-81921190D01*
X164697404Y-82397380D02*
X164697404Y-81397380D01*
X165078357Y-81397380D01*
X165173595Y-81445000D01*
X165221214Y-81492619D01*
X165268833Y-81587857D01*
X165268833Y-81730714D01*
X165221214Y-81825952D01*
X165173595Y-81873571D01*
X165078357Y-81921190D01*
X164697404Y-81921190D01*
X165840261Y-81825952D02*
X165745023Y-81778333D01*
X165697404Y-81730714D01*
X165649785Y-81635476D01*
X165649785Y-81587857D01*
X165697404Y-81492619D01*
X165745023Y-81445000D01*
X165840261Y-81397380D01*
X166030738Y-81397380D01*
X166125976Y-81445000D01*
X166173595Y-81492619D01*
X166221214Y-81587857D01*
X166221214Y-81635476D01*
X166173595Y-81730714D01*
X166125976Y-81778333D01*
X166030738Y-81825952D01*
X165840261Y-81825952D01*
X165745023Y-81873571D01*
X165697404Y-81921190D01*
X165649785Y-82016428D01*
X165649785Y-82206904D01*
X165697404Y-82302142D01*
X165745023Y-82349761D01*
X165840261Y-82397380D01*
X166030738Y-82397380D01*
X166125976Y-82349761D01*
X166173595Y-82302142D01*
X166221214Y-82206904D01*
X166221214Y-82016428D01*
X166173595Y-81921190D01*
X166125976Y-81873571D01*
X166030738Y-81825952D01*
%TO.C,U8*%
X112836095Y-113547380D02*
X112836095Y-114356904D01*
X112883714Y-114452142D01*
X112931333Y-114499761D01*
X113026571Y-114547380D01*
X113217047Y-114547380D01*
X113312285Y-114499761D01*
X113359904Y-114452142D01*
X113407523Y-114356904D01*
X113407523Y-113547380D01*
X114026571Y-113975952D02*
X113931333Y-113928333D01*
X113883714Y-113880714D01*
X113836095Y-113785476D01*
X113836095Y-113737857D01*
X113883714Y-113642619D01*
X113931333Y-113595000D01*
X114026571Y-113547380D01*
X114217047Y-113547380D01*
X114312285Y-113595000D01*
X114359904Y-113642619D01*
X114407523Y-113737857D01*
X114407523Y-113785476D01*
X114359904Y-113880714D01*
X114312285Y-113928333D01*
X114217047Y-113975952D01*
X114026571Y-113975952D01*
X113931333Y-114023571D01*
X113883714Y-114071190D01*
X113836095Y-114166428D01*
X113836095Y-114356904D01*
X113883714Y-114452142D01*
X113931333Y-114499761D01*
X114026571Y-114547380D01*
X114217047Y-114547380D01*
X114312285Y-114499761D01*
X114359904Y-114452142D01*
X114407523Y-114356904D01*
X114407523Y-114166428D01*
X114359904Y-114071190D01*
X114312285Y-114023571D01*
X114217047Y-113975952D01*
%TO.C,BT1*%
X133856571Y-124550714D02*
X133904190Y-124407857D01*
X133951809Y-124360238D01*
X134047047Y-124312619D01*
X134189904Y-124312619D01*
X134285142Y-124360238D01*
X134332761Y-124407857D01*
X134380380Y-124503095D01*
X134380380Y-124884047D01*
X133380380Y-124884047D01*
X133380380Y-124550714D01*
X133428000Y-124455476D01*
X133475619Y-124407857D01*
X133570857Y-124360238D01*
X133666095Y-124360238D01*
X133761333Y-124407857D01*
X133808952Y-124455476D01*
X133856571Y-124550714D01*
X133856571Y-124884047D01*
X133380380Y-124026904D02*
X133380380Y-123455476D01*
X134380380Y-123741190D02*
X133380380Y-123741190D01*
X134380380Y-122598333D02*
X134380380Y-123169761D01*
X134380380Y-122884047D02*
X133380380Y-122884047D01*
X133523238Y-122979285D01*
X133618476Y-123074523D01*
X133666095Y-123169761D01*
%TO.C,C16*%
X123355142Y-115702142D02*
X123307523Y-115749761D01*
X123164666Y-115797380D01*
X123069428Y-115797380D01*
X122926571Y-115749761D01*
X122831333Y-115654523D01*
X122783714Y-115559285D01*
X122736095Y-115368809D01*
X122736095Y-115225952D01*
X122783714Y-115035476D01*
X122831333Y-114940238D01*
X122926571Y-114845000D01*
X123069428Y-114797380D01*
X123164666Y-114797380D01*
X123307523Y-114845000D01*
X123355142Y-114892619D01*
X124307523Y-115797380D02*
X123736095Y-115797380D01*
X124021809Y-115797380D02*
X124021809Y-114797380D01*
X123926571Y-114940238D01*
X123831333Y-115035476D01*
X123736095Y-115083095D01*
X125164666Y-114797380D02*
X124974190Y-114797380D01*
X124878952Y-114845000D01*
X124831333Y-114892619D01*
X124736095Y-115035476D01*
X124688476Y-115225952D01*
X124688476Y-115606904D01*
X124736095Y-115702142D01*
X124783714Y-115749761D01*
X124878952Y-115797380D01*
X125069428Y-115797380D01*
X125164666Y-115749761D01*
X125212285Y-115702142D01*
X125259904Y-115606904D01*
X125259904Y-115368809D01*
X125212285Y-115273571D01*
X125164666Y-115225952D01*
X125069428Y-115178333D01*
X124878952Y-115178333D01*
X124783714Y-115225952D01*
X124736095Y-115273571D01*
X124688476Y-115368809D01*
%TO.C,C17*%
X123617642Y-109352142D02*
X123570023Y-109399761D01*
X123427166Y-109447380D01*
X123331928Y-109447380D01*
X123189071Y-109399761D01*
X123093833Y-109304523D01*
X123046214Y-109209285D01*
X122998595Y-109018809D01*
X122998595Y-108875952D01*
X123046214Y-108685476D01*
X123093833Y-108590238D01*
X123189071Y-108495000D01*
X123331928Y-108447380D01*
X123427166Y-108447380D01*
X123570023Y-108495000D01*
X123617642Y-108542619D01*
X124570023Y-109447380D02*
X123998595Y-109447380D01*
X124284309Y-109447380D02*
X124284309Y-108447380D01*
X124189071Y-108590238D01*
X124093833Y-108685476D01*
X123998595Y-108733095D01*
X124903357Y-108447380D02*
X125570023Y-108447380D01*
X125141452Y-109447380D01*
%TO.C,C19*%
X133492642Y-100252142D02*
X133445023Y-100299761D01*
X133302166Y-100347380D01*
X133206928Y-100347380D01*
X133064071Y-100299761D01*
X132968833Y-100204523D01*
X132921214Y-100109285D01*
X132873595Y-99918809D01*
X132873595Y-99775952D01*
X132921214Y-99585476D01*
X132968833Y-99490238D01*
X133064071Y-99395000D01*
X133206928Y-99347380D01*
X133302166Y-99347380D01*
X133445023Y-99395000D01*
X133492642Y-99442619D01*
X134445023Y-100347380D02*
X133873595Y-100347380D01*
X134159309Y-100347380D02*
X134159309Y-99347380D01*
X134064071Y-99490238D01*
X133968833Y-99585476D01*
X133873595Y-99633095D01*
X134921214Y-100347380D02*
X135111690Y-100347380D01*
X135206928Y-100299761D01*
X135254547Y-100252142D01*
X135349785Y-100109285D01*
X135397404Y-99918809D01*
X135397404Y-99537857D01*
X135349785Y-99442619D01*
X135302166Y-99395000D01*
X135206928Y-99347380D01*
X135016452Y-99347380D01*
X134921214Y-99395000D01*
X134873595Y-99442619D01*
X134825976Y-99537857D01*
X134825976Y-99775952D01*
X134873595Y-99871190D01*
X134921214Y-99918809D01*
X135016452Y-99966428D01*
X135206928Y-99966428D01*
X135302166Y-99918809D01*
X135349785Y-99871190D01*
X135397404Y-99775952D01*
%TO.C,C20*%
X142167642Y-89752142D02*
X142120023Y-89799761D01*
X141977166Y-89847380D01*
X141881928Y-89847380D01*
X141739071Y-89799761D01*
X141643833Y-89704523D01*
X141596214Y-89609285D01*
X141548595Y-89418809D01*
X141548595Y-89275952D01*
X141596214Y-89085476D01*
X141643833Y-88990238D01*
X141739071Y-88895000D01*
X141881928Y-88847380D01*
X141977166Y-88847380D01*
X142120023Y-88895000D01*
X142167642Y-88942619D01*
X142548595Y-88942619D02*
X142596214Y-88895000D01*
X142691452Y-88847380D01*
X142929547Y-88847380D01*
X143024785Y-88895000D01*
X143072404Y-88942619D01*
X143120023Y-89037857D01*
X143120023Y-89133095D01*
X143072404Y-89275952D01*
X142500976Y-89847380D01*
X143120023Y-89847380D01*
X143739071Y-88847380D02*
X143834309Y-88847380D01*
X143929547Y-88895000D01*
X143977166Y-88942619D01*
X144024785Y-89037857D01*
X144072404Y-89228333D01*
X144072404Y-89466428D01*
X144024785Y-89656904D01*
X143977166Y-89752142D01*
X143929547Y-89799761D01*
X143834309Y-89847380D01*
X143739071Y-89847380D01*
X143643833Y-89799761D01*
X143596214Y-89752142D01*
X143548595Y-89656904D01*
X143500976Y-89466428D01*
X143500976Y-89228333D01*
X143548595Y-89037857D01*
X143596214Y-88942619D01*
X143643833Y-88895000D01*
X143739071Y-88847380D01*
%TO.C,C21*%
X130425142Y-98195357D02*
X130472761Y-98242976D01*
X130520380Y-98385833D01*
X130520380Y-98481071D01*
X130472761Y-98623928D01*
X130377523Y-98719166D01*
X130282285Y-98766785D01*
X130091809Y-98814404D01*
X129948952Y-98814404D01*
X129758476Y-98766785D01*
X129663238Y-98719166D01*
X129568000Y-98623928D01*
X129520380Y-98481071D01*
X129520380Y-98385833D01*
X129568000Y-98242976D01*
X129615619Y-98195357D01*
X129615619Y-97814404D02*
X129568000Y-97766785D01*
X129520380Y-97671547D01*
X129520380Y-97433452D01*
X129568000Y-97338214D01*
X129615619Y-97290595D01*
X129710857Y-97242976D01*
X129806095Y-97242976D01*
X129948952Y-97290595D01*
X130520380Y-97862023D01*
X130520380Y-97242976D01*
X130520380Y-96290595D02*
X130520380Y-96862023D01*
X130520380Y-96576309D02*
X129520380Y-96576309D01*
X129663238Y-96671547D01*
X129758476Y-96766785D01*
X129806095Y-96862023D01*
%TO.C,D7*%
X154409904Y-110637380D02*
X154409904Y-109637380D01*
X154648000Y-109637380D01*
X154790857Y-109685000D01*
X154886095Y-109780238D01*
X154933714Y-109875476D01*
X154981333Y-110065952D01*
X154981333Y-110208809D01*
X154933714Y-110399285D01*
X154886095Y-110494523D01*
X154790857Y-110589761D01*
X154648000Y-110637380D01*
X154409904Y-110637380D01*
X155314666Y-109637380D02*
X155981333Y-109637380D01*
X155552761Y-110637380D01*
%TO.C,J3*%
X176080380Y-83698333D02*
X176794666Y-83698333D01*
X176937523Y-83745952D01*
X177032761Y-83841190D01*
X177080380Y-83984047D01*
X177080380Y-84079285D01*
X176080380Y-83317380D02*
X176080380Y-82698333D01*
X176461333Y-83031666D01*
X176461333Y-82888809D01*
X176508952Y-82793571D01*
X176556571Y-82745952D01*
X176651809Y-82698333D01*
X176889904Y-82698333D01*
X176985142Y-82745952D01*
X177032761Y-82793571D01*
X177080380Y-82888809D01*
X177080380Y-83174523D01*
X177032761Y-83269761D01*
X176985142Y-83317380D01*
%TO.C,R1*%
X131420380Y-81331666D02*
X130944190Y-81665000D01*
X131420380Y-81903095D02*
X130420380Y-81903095D01*
X130420380Y-81522142D01*
X130468000Y-81426904D01*
X130515619Y-81379285D01*
X130610857Y-81331666D01*
X130753714Y-81331666D01*
X130848952Y-81379285D01*
X130896571Y-81426904D01*
X130944190Y-81522142D01*
X130944190Y-81903095D01*
X131420380Y-80379285D02*
X131420380Y-80950714D01*
X131420380Y-80665000D02*
X130420380Y-80665000D01*
X130563238Y-80760238D01*
X130658476Y-80855476D01*
X130706095Y-80950714D01*
%TO.C,R2*%
X129020380Y-81319166D02*
X128544190Y-81652500D01*
X129020380Y-81890595D02*
X128020380Y-81890595D01*
X128020380Y-81509642D01*
X128068000Y-81414404D01*
X128115619Y-81366785D01*
X128210857Y-81319166D01*
X128353714Y-81319166D01*
X128448952Y-81366785D01*
X128496571Y-81414404D01*
X128544190Y-81509642D01*
X128544190Y-81890595D01*
X128115619Y-80938214D02*
X128068000Y-80890595D01*
X128020380Y-80795357D01*
X128020380Y-80557261D01*
X128068000Y-80462023D01*
X128115619Y-80414404D01*
X128210857Y-80366785D01*
X128306095Y-80366785D01*
X128448952Y-80414404D01*
X129020380Y-80985833D01*
X129020380Y-80366785D01*
%TO.C,R6*%
X169418833Y-77787380D02*
X169085500Y-77311190D01*
X168847404Y-77787380D02*
X168847404Y-76787380D01*
X169228357Y-76787380D01*
X169323595Y-76835000D01*
X169371214Y-76882619D01*
X169418833Y-76977857D01*
X169418833Y-77120714D01*
X169371214Y-77215952D01*
X169323595Y-77263571D01*
X169228357Y-77311190D01*
X168847404Y-77311190D01*
X170275976Y-76787380D02*
X170085500Y-76787380D01*
X169990261Y-76835000D01*
X169942642Y-76882619D01*
X169847404Y-77025476D01*
X169799785Y-77215952D01*
X169799785Y-77596904D01*
X169847404Y-77692142D01*
X169895023Y-77739761D01*
X169990261Y-77787380D01*
X170180738Y-77787380D01*
X170275976Y-77739761D01*
X170323595Y-77692142D01*
X170371214Y-77596904D01*
X170371214Y-77358809D01*
X170323595Y-77263571D01*
X170275976Y-77215952D01*
X170180738Y-77168333D01*
X169990261Y-77168333D01*
X169895023Y-77215952D01*
X169847404Y-77263571D01*
X169799785Y-77358809D01*
%TO.C,R7*%
X169443833Y-79587380D02*
X169110500Y-79111190D01*
X168872404Y-79587380D02*
X168872404Y-78587380D01*
X169253357Y-78587380D01*
X169348595Y-78635000D01*
X169396214Y-78682619D01*
X169443833Y-78777857D01*
X169443833Y-78920714D01*
X169396214Y-79015952D01*
X169348595Y-79063571D01*
X169253357Y-79111190D01*
X168872404Y-79111190D01*
X169777166Y-78587380D02*
X170443833Y-78587380D01*
X170015261Y-79587380D01*
%TO.C,R11*%
X158817642Y-110247380D02*
X158484309Y-109771190D01*
X158246214Y-110247380D02*
X158246214Y-109247380D01*
X158627166Y-109247380D01*
X158722404Y-109295000D01*
X158770023Y-109342619D01*
X158817642Y-109437857D01*
X158817642Y-109580714D01*
X158770023Y-109675952D01*
X158722404Y-109723571D01*
X158627166Y-109771190D01*
X158246214Y-109771190D01*
X159770023Y-110247380D02*
X159198595Y-110247380D01*
X159484309Y-110247380D02*
X159484309Y-109247380D01*
X159389071Y-109390238D01*
X159293833Y-109485476D01*
X159198595Y-109533095D01*
X160722404Y-110247380D02*
X160150976Y-110247380D01*
X160436690Y-110247380D02*
X160436690Y-109247380D01*
X160341452Y-109390238D01*
X160246214Y-109485476D01*
X160150976Y-109533095D01*
%TO.C,R12*%
X120080380Y-111907857D02*
X119604190Y-112241190D01*
X120080380Y-112479285D02*
X119080380Y-112479285D01*
X119080380Y-112098333D01*
X119128000Y-112003095D01*
X119175619Y-111955476D01*
X119270857Y-111907857D01*
X119413714Y-111907857D01*
X119508952Y-111955476D01*
X119556571Y-112003095D01*
X119604190Y-112098333D01*
X119604190Y-112479285D01*
X120080380Y-110955476D02*
X120080380Y-111526904D01*
X120080380Y-111241190D02*
X119080380Y-111241190D01*
X119223238Y-111336428D01*
X119318476Y-111431666D01*
X119366095Y-111526904D01*
X119175619Y-110574523D02*
X119128000Y-110526904D01*
X119080380Y-110431666D01*
X119080380Y-110193571D01*
X119128000Y-110098333D01*
X119175619Y-110050714D01*
X119270857Y-110003095D01*
X119366095Y-110003095D01*
X119508952Y-110050714D01*
X120080380Y-110622142D01*
X120080380Y-110003095D01*
%TO.C,R13*%
X119980380Y-105907857D02*
X119504190Y-106241190D01*
X119980380Y-106479285D02*
X118980380Y-106479285D01*
X118980380Y-106098333D01*
X119028000Y-106003095D01*
X119075619Y-105955476D01*
X119170857Y-105907857D01*
X119313714Y-105907857D01*
X119408952Y-105955476D01*
X119456571Y-106003095D01*
X119504190Y-106098333D01*
X119504190Y-106479285D01*
X119980380Y-104955476D02*
X119980380Y-105526904D01*
X119980380Y-105241190D02*
X118980380Y-105241190D01*
X119123238Y-105336428D01*
X119218476Y-105431666D01*
X119266095Y-105526904D01*
X118980380Y-104622142D02*
X118980380Y-104003095D01*
X119361333Y-104336428D01*
X119361333Y-104193571D01*
X119408952Y-104098333D01*
X119456571Y-104050714D01*
X119551809Y-104003095D01*
X119789904Y-104003095D01*
X119885142Y-104050714D01*
X119932761Y-104098333D01*
X119980380Y-104193571D01*
X119980380Y-104479285D01*
X119932761Y-104574523D01*
X119885142Y-104622142D01*
%TO.C,R16*%
X142217642Y-85187380D02*
X141884309Y-84711190D01*
X141646214Y-85187380D02*
X141646214Y-84187380D01*
X142027166Y-84187380D01*
X142122404Y-84235000D01*
X142170023Y-84282619D01*
X142217642Y-84377857D01*
X142217642Y-84520714D01*
X142170023Y-84615952D01*
X142122404Y-84663571D01*
X142027166Y-84711190D01*
X141646214Y-84711190D01*
X143170023Y-85187380D02*
X142598595Y-85187380D01*
X142884309Y-85187380D02*
X142884309Y-84187380D01*
X142789071Y-84330238D01*
X142693833Y-84425476D01*
X142598595Y-84473095D01*
X144027166Y-84187380D02*
X143836690Y-84187380D01*
X143741452Y-84235000D01*
X143693833Y-84282619D01*
X143598595Y-84425476D01*
X143550976Y-84615952D01*
X143550976Y-84996904D01*
X143598595Y-85092142D01*
X143646214Y-85139761D01*
X143741452Y-85187380D01*
X143931928Y-85187380D01*
X144027166Y-85139761D01*
X144074785Y-85092142D01*
X144122404Y-84996904D01*
X144122404Y-84758809D01*
X144074785Y-84663571D01*
X144027166Y-84615952D01*
X143931928Y-84568333D01*
X143741452Y-84568333D01*
X143646214Y-84615952D01*
X143598595Y-84663571D01*
X143550976Y-84758809D01*
%TO.C,U1*%
X157586095Y-108517380D02*
X157586095Y-109326904D01*
X157633714Y-109422142D01*
X157681333Y-109469761D01*
X157776571Y-109517380D01*
X157967047Y-109517380D01*
X158062285Y-109469761D01*
X158109904Y-109422142D01*
X158157523Y-109326904D01*
X158157523Y-108517380D01*
X159157523Y-109517380D02*
X158586095Y-109517380D01*
X158871809Y-109517380D02*
X158871809Y-108517380D01*
X158776571Y-108660238D01*
X158681333Y-108755476D01*
X158586095Y-108803095D01*
%TO.C,U4*%
X123236095Y-108267380D02*
X123236095Y-109076904D01*
X123283714Y-109172142D01*
X123331333Y-109219761D01*
X123426571Y-109267380D01*
X123617047Y-109267380D01*
X123712285Y-109219761D01*
X123759904Y-109172142D01*
X123807523Y-109076904D01*
X123807523Y-108267380D01*
X124712285Y-108600714D02*
X124712285Y-109267380D01*
X124474190Y-108219761D02*
X124236095Y-108934047D01*
X124855142Y-108934047D01*
%TO.C,U5*%
X123436095Y-102067380D02*
X123436095Y-102876904D01*
X123483714Y-102972142D01*
X123531333Y-103019761D01*
X123626571Y-103067380D01*
X123817047Y-103067380D01*
X123912285Y-103019761D01*
X123959904Y-102972142D01*
X124007523Y-102876904D01*
X124007523Y-102067380D01*
X124959904Y-102067380D02*
X124483714Y-102067380D01*
X124436095Y-102543571D01*
X124483714Y-102495952D01*
X124578952Y-102448333D01*
X124817047Y-102448333D01*
X124912285Y-102495952D01*
X124959904Y-102543571D01*
X125007523Y-102638809D01*
X125007523Y-102876904D01*
X124959904Y-102972142D01*
X124912285Y-103019761D01*
X124817047Y-103067380D01*
X124578952Y-103067380D01*
X124483714Y-103019761D01*
X124436095Y-102972142D01*
%TO.C,U6*%
X130915380Y-94051904D02*
X131724904Y-94051904D01*
X131820142Y-94004285D01*
X131867761Y-93956666D01*
X131915380Y-93861428D01*
X131915380Y-93670952D01*
X131867761Y-93575714D01*
X131820142Y-93528095D01*
X131724904Y-93480476D01*
X130915380Y-93480476D01*
X130915380Y-92575714D02*
X130915380Y-92766190D01*
X130963000Y-92861428D01*
X131010619Y-92909047D01*
X131153476Y-93004285D01*
X131343952Y-93051904D01*
X131724904Y-93051904D01*
X131820142Y-93004285D01*
X131867761Y-92956666D01*
X131915380Y-92861428D01*
X131915380Y-92670952D01*
X131867761Y-92575714D01*
X131820142Y-92528095D01*
X131724904Y-92480476D01*
X131486809Y-92480476D01*
X131391571Y-92528095D01*
X131343952Y-92575714D01*
X131296333Y-92670952D01*
X131296333Y-92861428D01*
X131343952Y-92956666D01*
X131391571Y-93004285D01*
X131486809Y-93051904D01*
%TO.C,C1*%
X144955142Y-113131666D02*
X145002761Y-113179285D01*
X145050380Y-113322142D01*
X145050380Y-113417380D01*
X145002761Y-113560238D01*
X144907523Y-113655476D01*
X144812285Y-113703095D01*
X144621809Y-113750714D01*
X144478952Y-113750714D01*
X144288476Y-113703095D01*
X144193238Y-113655476D01*
X144098000Y-113560238D01*
X144050380Y-113417380D01*
X144050380Y-113322142D01*
X144098000Y-113179285D01*
X144145619Y-113131666D01*
X145050380Y-112179285D02*
X145050380Y-112750714D01*
X145050380Y-112465000D02*
X144050380Y-112465000D01*
X144193238Y-112560238D01*
X144288476Y-112655476D01*
X144336095Y-112750714D01*
%TO.C,C2*%
X141668833Y-99552142D02*
X141621214Y-99599761D01*
X141478357Y-99647380D01*
X141383119Y-99647380D01*
X141240261Y-99599761D01*
X141145023Y-99504523D01*
X141097404Y-99409285D01*
X141049785Y-99218809D01*
X141049785Y-99075952D01*
X141097404Y-98885476D01*
X141145023Y-98790238D01*
X141240261Y-98695000D01*
X141383119Y-98647380D01*
X141478357Y-98647380D01*
X141621214Y-98695000D01*
X141668833Y-98742619D01*
X142049785Y-98742619D02*
X142097404Y-98695000D01*
X142192642Y-98647380D01*
X142430738Y-98647380D01*
X142525976Y-98695000D01*
X142573595Y-98742619D01*
X142621214Y-98837857D01*
X142621214Y-98933095D01*
X142573595Y-99075952D01*
X142002166Y-99647380D01*
X142621214Y-99647380D01*
%TO.C,C3*%
X123305142Y-93331666D02*
X123352761Y-93379285D01*
X123400380Y-93522142D01*
X123400380Y-93617380D01*
X123352761Y-93760238D01*
X123257523Y-93855476D01*
X123162285Y-93903095D01*
X122971809Y-93950714D01*
X122828952Y-93950714D01*
X122638476Y-93903095D01*
X122543238Y-93855476D01*
X122448000Y-93760238D01*
X122400380Y-93617380D01*
X122400380Y-93522142D01*
X122448000Y-93379285D01*
X122495619Y-93331666D01*
X122400380Y-92998333D02*
X122400380Y-92379285D01*
X122781333Y-92712619D01*
X122781333Y-92569761D01*
X122828952Y-92474523D01*
X122876571Y-92426904D01*
X122971809Y-92379285D01*
X123209904Y-92379285D01*
X123305142Y-92426904D01*
X123352761Y-92474523D01*
X123400380Y-92569761D01*
X123400380Y-92855476D01*
X123352761Y-92950714D01*
X123305142Y-92998333D01*
%TD*%
M02*
