M48
; DRILL file {KiCad (5.1.10)-1} date 02/11/23 17:53:20
; FORMAT={-:-/ absolute / inch / decimal}
; #@! TF.CreationDate,2023-02-11T17:53:20+08:00
; #@! TF.GenerationSoftware,Kicad,Pcbnew,(5.1.10)-1
; #@! TF.FileFunction,Plated,1,2,PTH
FMAT,2
INCH
T1C0.0118
T2C0.0157
T3C0.0315
T4C0.0394
T5C0.1200
%
G90
G05
T1
X5.2637Y-3.6089
X5.2637Y-3.66
X5.2637Y-3.7112
X5.3149Y-3.6089
X5.3149Y-3.66
X5.3149Y-3.7112
X5.3661Y-3.6089
X5.3661Y-3.66
X5.3661Y-3.7112
X5.4172Y-3.6089
X5.4172Y-3.66
X5.4172Y-3.7112
X5.4684Y-3.6089
X5.4684Y-3.66
X5.4684Y-3.7112
X5.5196Y-3.6089
X5.5196Y-3.66
X5.5196Y-3.7112
X5.5708Y-3.6089
X5.5708Y-3.66
X5.5708Y-3.7112
T2
X4.7356Y-4.2663
X4.9251Y-4.5892
X4.9261Y-3.3717
X4.9261Y-4.1728
X5.0235Y-4.2663
X5.0511Y-4.3411
X5.0629Y-4.101
X5.2434Y-3.9396
X5.3021Y-3.4839
X5.3412Y-4.0373
X5.3533Y-3.4839
X5.4084Y-3.4839
X5.87Y-4.6699
T3
X5.6338Y-4.3234
T4
X4.4724Y-4.2002
X4.4724Y-4.3002
X4.4724Y-4.4002
X5.081Y-4.8726
X5.11Y-2.975
X5.181Y-4.8726
X5.21Y-2.975
X5.31Y-2.975
X5.41Y-2.975
X5.47Y-4.875
X5.51Y-2.975
X5.57Y-4.875
X5.61Y-2.975
X5.67Y-4.875
X5.71Y-2.975
X5.77Y-4.875
X5.81Y-2.975
X5.87Y-4.875
X5.91Y-2.975
X5.97Y-4.875
X6.01Y-2.975
X6.07Y-4.875
X6.17Y-2.975
X6.17Y-4.875
X6.27Y-2.975
X6.37Y-2.975
X6.37Y-4.875
X6.4621Y-3.2821
X6.47Y-2.975
X6.47Y-4.875
X6.5621Y-3.2821
X6.57Y-2.975
X6.57Y-4.875
X6.6621Y-3.2821
X6.67Y-2.975
X6.67Y-4.875
X6.7621Y-3.2821
X6.77Y-2.975
X6.77Y-4.875
X6.8621Y-3.2821
X6.87Y-2.975
X6.87Y-4.875
T5
X4.97Y-2.975
X6.97Y-3.575
X6.97Y-4.675
T0
M30
