%TF.GenerationSoftware,KiCad,Pcbnew,(5.1.10)-1*%
%TF.CreationDate,2023-02-13T10:48:01+08:00*%
%TF.ProjectId,my_foc_power_shield,6d795f66-6f63-45f7-906f-7765725f7368,rev?*%
%TF.SameCoordinates,Original*%
%TF.FileFunction,Copper,L2,Bot*%
%TF.FilePolarity,Positive*%
%FSLAX46Y46*%
G04 Gerber Fmt 4.6, Leading zero omitted, Abs format (unit mm)*
G04 Created by KiCad (PCBNEW (5.1.10)-1) date 2023-02-13 10:48:01*
%MOMM*%
%LPD*%
G01*
G04 APERTURE LIST*
%TA.AperFunction,ComponentPad*%
%ADD10R,1.700000X1.700000*%
%TD*%
%TA.AperFunction,ComponentPad*%
%ADD11O,1.700000X1.700000*%
%TD*%
%TA.AperFunction,ComponentPad*%
%ADD12C,4.064000*%
%TD*%
%TA.AperFunction,ComponentPad*%
%ADD13C,0.500000*%
%TD*%
%TA.AperFunction,ViaPad*%
%ADD14C,0.600000*%
%TD*%
%TA.AperFunction,ViaPad*%
%ADD15C,1.000000*%
%TD*%
%TA.AperFunction,Conductor*%
%ADD16C,0.500000*%
%TD*%
%TA.AperFunction,Conductor*%
%ADD17C,1.000000*%
%TD*%
%TA.AperFunction,Conductor*%
%ADD18C,0.250000*%
%TD*%
G04 APERTURE END LIST*
D10*
%TO.P,U8,1*%
%TO.N,/MOTOR_A*%
X113598000Y-111765000D03*
D11*
%TO.P,U8,2*%
%TO.N,/MOTOR_B*%
X113598000Y-109225000D03*
%TO.P,U8,3*%
%TO.N,/MOTOR_C*%
X113598000Y-106685000D03*
%TD*%
%TO.P,P3,10*%
%TO.N,/DRV_EN_8*%
X152654000Y-75565000D03*
%TO.P,P3,9*%
%TO.N,/9(\u002A\u002A)*%
X150114000Y-75565000D03*
%TO.P,P3,8*%
%TO.N,/PWM_B_10*%
X147574000Y-75565000D03*
%TO.P,P3,7*%
%TO.N,/Encoder_Z_D11*%
X145034000Y-75565000D03*
%TO.P,P3,6*%
%TO.N,/12(MISO)*%
X142494000Y-75565000D03*
%TO.P,P3,5*%
%TO.N,/13(SCK)*%
X139954000Y-75565000D03*
%TO.P,P3,4*%
%TO.N,GNDA*%
X137414000Y-75565000D03*
%TO.P,P3,3*%
%TO.N,/AREF*%
X134874000Y-75565000D03*
%TO.P,P3,2*%
%TO.N,/SDA*%
X132334000Y-75565000D03*
D10*
%TO.P,P3,1*%
%TO.N,/SCL*%
X129794000Y-75565000D03*
%TD*%
D11*
%TO.P,P1,8*%
%TO.N,/Vin*%
X156718000Y-123825000D03*
%TO.P,P1,7*%
%TO.N,GNDA*%
X154178000Y-123825000D03*
%TO.P,P1,6*%
X151638000Y-123825000D03*
%TO.P,P1,5*%
%TO.N,+5V*%
X149098000Y-123825000D03*
%TO.P,P1,4*%
%TO.N,+3V3*%
X146558000Y-123825000D03*
%TO.P,P1,3*%
%TO.N,/Reset*%
X144018000Y-123825000D03*
%TO.P,P1,2*%
%TO.N,/IOREF*%
X141478000Y-123825000D03*
D10*
%TO.P,P1,1*%
%TO.N,Net-(P1-Pad1)*%
X138938000Y-123825000D03*
%TD*%
D11*
%TO.P,P4,8*%
%TO.N,/0(Rx)*%
X174498000Y-75565000D03*
%TO.P,P4,7*%
%TO.N,/Encoder_B_D1*%
X171958000Y-75565000D03*
%TO.P,P4,6*%
%TO.N,/Encoder_A_D2*%
X169418000Y-75565000D03*
%TO.P,P4,5*%
%TO.N,/3(\u002A\u002A)*%
X166878000Y-75565000D03*
%TO.P,P4,4*%
%TO.N,/4*%
X164338000Y-75565000D03*
%TO.P,P4,3*%
%TO.N,/PWM_A_5*%
X161798000Y-75565000D03*
%TO.P,P4,2*%
%TO.N,/PWM_C_6*%
X159258000Y-75565000D03*
D10*
%TO.P,P4,1*%
%TO.N,/7*%
X156718000Y-75565000D03*
%TD*%
D11*
%TO.P,P2,6*%
%TO.N,/A5(SCL)*%
X174498000Y-123825000D03*
%TO.P,P2,5*%
%TO.N,/A4(SDA)*%
X171958000Y-123825000D03*
%TO.P,P2,4*%
%TO.N,/A3*%
X169418000Y-123825000D03*
%TO.P,P2,3*%
%TO.N,/SENSE_B_A2*%
X166878000Y-123825000D03*
%TO.P,P2,2*%
%TO.N,/A1*%
X164338000Y-123825000D03*
D10*
%TO.P,P2,1*%
%TO.N,/SENSE_A_A0*%
X161798000Y-123825000D03*
%TD*%
D12*
%TO.P,P6,1*%
%TO.N,Net-(P6-Pad1)*%
X177038000Y-118745000D03*
%TD*%
%TO.P,P7,1*%
%TO.N,Net-(P7-Pad1)*%
X126238000Y-75565000D03*
%TD*%
%TO.P,P8,1*%
%TO.N,Net-(P8-Pad1)*%
X177038000Y-90805000D03*
%TD*%
D10*
%TO.P,BT1,1*%
%TO.N,VCC_IN*%
X131598000Y-123765000D03*
D11*
%TO.P,BT1,2*%
%TO.N,GNDA*%
X129058000Y-123765000D03*
%TD*%
D10*
%TO.P,J3,1*%
%TO.N,/Encoder_Z_D11*%
X174298000Y-83365000D03*
D11*
%TO.P,J3,2*%
%TO.N,/Encoder_B_D1*%
X171758000Y-83365000D03*
%TO.P,J3,3*%
%TO.N,/Encoder_A_D2*%
X169218000Y-83365000D03*
%TO.P,J3,4*%
%TO.N,GNDA*%
X166678000Y-83365000D03*
%TO.P,J3,5*%
%TO.N,+5V*%
X164138000Y-83365000D03*
%TD*%
D13*
%TO.P,U6,29*%
%TO.N,GNDA*%
X141498000Y-91665000D03*
X141498000Y-94265000D03*
X140198000Y-91665000D03*
X140198000Y-94265000D03*
X138898000Y-91665000D03*
X138898000Y-94265000D03*
X137598000Y-91665000D03*
X137598000Y-94265000D03*
X136298000Y-94265000D03*
X136298000Y-91665000D03*
X134998000Y-91665000D03*
X134998000Y-94265000D03*
X133698000Y-91665000D03*
X133698000Y-94265000D03*
X141498000Y-92965000D03*
X140198000Y-92965000D03*
X138898000Y-92965000D03*
X133698000Y-92965000D03*
X134998000Y-92965000D03*
X136298000Y-92965000D03*
X137598000Y-92965000D03*
%TD*%
D14*
%TO.N,+5V*%
X149098000Y-118615000D03*
%TO.N,+3V3*%
X125123000Y-105990000D03*
X125123000Y-85640000D03*
%TO.N,GNDA*%
X125098000Y-116565000D03*
%TO.N,VCC_IN*%
X133182788Y-100065000D03*
D15*
X143098000Y-109815000D03*
D14*
X135665394Y-102547606D03*
%TO.N,/SENSE_A_A0*%
X128298000Y-110265000D03*
%TO.N,/SENSE_B_A2*%
X128598000Y-104165000D03*
%TO.N,/DRV_EN_8*%
X135973000Y-88490000D03*
X137373000Y-88490000D03*
X134673000Y-88490000D03*
%TO.N,/MOTOR_B_CS*%
X120285510Y-108365010D03*
X127597990Y-108365010D03*
%TD*%
D16*
%TO.N,+5V*%
X149098000Y-98405000D02*
X164138000Y-83365000D01*
X149098000Y-118615000D02*
X149098000Y-98405000D01*
%TO.N,+3V3*%
X125123000Y-105990000D02*
X125123000Y-85640000D01*
X125123000Y-85640000D02*
X125123000Y-85640000D01*
%TO.N,GNDA*%
X129058000Y-120525000D02*
X125098000Y-116565000D01*
X129058000Y-123765000D02*
X129058000Y-120525000D01*
X164503010Y-81190010D02*
X166678000Y-83365000D01*
X143039010Y-81190010D02*
X164503010Y-81190010D01*
X137414000Y-75565000D02*
X143039010Y-81190010D01*
D17*
%TO.N,VCC_IN*%
X133182788Y-100065000D02*
X135665394Y-102547606D01*
X135665394Y-102547606D02*
X143032788Y-109915000D01*
D16*
%TO.N,GNDA*%
X150337999Y-125125001D02*
X151638000Y-123825000D01*
X130418001Y-125125001D02*
X150337999Y-125125001D01*
X129058000Y-123765000D02*
X130418001Y-125125001D01*
D18*
%TO.N,/SENSE_A_A0*%
X159398000Y-121565000D02*
X139598000Y-121565000D01*
X139598000Y-121565000D02*
X128298000Y-110265000D01*
X128298000Y-110265000D02*
X128298000Y-110265000D01*
X161658000Y-123825000D02*
X159398000Y-121565000D01*
X161798000Y-123825000D02*
X161658000Y-123825000D01*
%TO.N,/SENSE_B_A2*%
X166878000Y-123825000D02*
X163118000Y-120065000D01*
X163118000Y-120065000D02*
X144598000Y-120065000D01*
X144598000Y-120065000D02*
X144498000Y-120065000D01*
X144498000Y-120065000D02*
X128598000Y-104165000D01*
X128598000Y-104165000D02*
X128598000Y-104165000D01*
%TO.N,/DRV_EN_8*%
X135973000Y-88490000D02*
X137373000Y-88490000D01*
X137373000Y-88490000D02*
X137373000Y-88490000D01*
X135973000Y-88490000D02*
X134673000Y-88490000D01*
%TO.N,/MOTOR_B_CS*%
X120285510Y-108365010D02*
X127597990Y-108365010D01*
X127597990Y-108365010D02*
X127597990Y-108365010D01*
%TD*%
M02*
